<svg height="60" viewBox="0 0 51 60" width="51" xmlns="http://www.w3.org/2000/svg"><path d="m40.0909091 44.4545455c3.5454545-.5454546 10.7727273-2.5909091 10.7727273-8.8636364 0-3.6818182-2.0454546-5.5909091-6-5.5909091-.5454546 0-1.2272728.1363636-1.7727273.2727273.2727273-2.7272728.4090909-4.6363637.4090909-4.6363637h-39.81818182s1.22727273 30.2727273 15.54545452 30.2727273h-18.68181815s-.68181819 3.8181818 23.18181815 3.8181818c23.8636364 0 22.9090909-3.8181818 22.9090909-3.8181818h-18.5454545c6 .1363636 9.6818182-5.1818182 12-11.4545454zm4.7727273-12.1363637c1.9090909 0 3.6818181.2727273 3.6818181 3.2727273 0 3.9545454-4.5 5.7272727-7.6363636 6.4090909.8181818-2.8636364 1.5-5.8636364 1.9090909-8.8636364.5454546-.5454545 1.3636364-.6818181 2.0454546-.8181818zm-25.7727273-16.0909091c0-4.5-6.2727273-6.40909088-6.2727273-9.95454543 0-3.54545454 4.3636364-5.45454545 4.3636364-5.45454545-1.3636364 1.36363636-2.1818182 3.40909091-2.0454546 5.31818182 0 3.40909091 6.2727273 5.45454546 6.2727273 9.95454546s-4.7727273 6.4090909-4.7727273 6.4090909 2.4545455-1.6363636 2.4545455-6.2727273zm11.4545454 0c0-4.5-6.2727272-6.40909088-6.2727272-9.95454543 0-3.54545454 4.3636363-5.45454545 4.3636363-5.45454545-1.3636363 1.36363636-2.1818181 3.40909091-2.0454545 5.31818182 0 3.40909091 6.2727273 5.45454546 6.2727273 9.95454546s-4.7727273 6.4090909-4.7727273 6.4090909 2.4545454-1.6363636 2.4545454-6.2727273z" fill="#3875c7"/></svg>