<svg height="39" viewBox="0 0 83 39" width="83" xmlns="http://www.w3.org/2000/svg"><path d="m24.9059926.7826087-2.0493536 4.78182524h-4.6110458l2.3909126-4.78182524zm-16.56560883 23.5675673h6.31884053l-6.31884053 14.3454757h-7.51429681zm12.80846043-14.85781418-4.0987073 9.22209158h-5.8065021l4.7818253-9.22209158zm43.7195451-3.92792788h-4.7818252l-2.0493537-4.78182524h4.2694868zm9.9052095 18.78574206 7.5142968 14.3454757h-7.5142968l-6.3188405-14.3454757zm-8.7097532-5.4649432-4.0987073-9.22209151h4.9526047l4.7818252 9.22209151zm-5.6357226 16.3948294c0 1.7077948-1.1954563 1.7077948-1.1954563 1.7077948h-3.7571484c-.3415589 0-.6831179-.1707795-1.0246768-.341559-.341559-.3415589-.341559-.6831179-.341559-1.0246768v-1.5370153h-25.4461414c-.341559 0-.1707795 1.0246769-.1707795 1.8785742 0 .6831179-1.1954563.6831179-1.1954563.6831179h-3.7571484c-1.5370153 0-1.3662358-1.8785742-1.3662358-1.8785742s.1707795-7.5142968 0-9.7344299c-.1707795-2.2201332 1.7077947-8.1974147 1.7077947-8.1974147l.5123384-.5123385-2.7324715-.6831179c-.6831179-.1707794-1.1954564-.8538973-1.1954564-1.7077947 0-2.3909126 6.3188405-1.7077947 6.3188405-1.7077947 2.5616921-6.66039946 4.9526048-6.48961999 4.9526048-6.48961999s17.7610652-.17077947 19.9811983 0c2.2201332.17077947 4.6110458 6.48961999 4.6110458 6.48961999 6.3188405.1707795 6.3188405 1.1954563 6.3188405 2.0493537-.1707795.8538973-.5123384 1.3662357-1.5370153 1.5370152-1.0246768.1707795-2.3909126.5123384-2.3909126.5123384.3415589.5123385.6831179 1.1954563 1.0246768 1.8785742.1707795.6831179.8538974 3.9279279.8538974 3.9279279s-.1707795 11.2714452-.1707795 13.1500194zm-28.8617309-26.3000388s-1.5370153.17077947-2.7324716 7.1727379h24.7630236s-1.3662358-7.00195843-2.903251-7.1727379c-1.3662358 0-19.127301 0-19.127301 0zm1.7077947 14.3454757.6831179-.6831179-1.5370152-2.903251-5.2941637-1.0246768c-.8538974 1.1954563-1.3662358 2.5616921-1.3662358 4.0987073 0 0 .341559.5123384.5123384.5123384zm23.9091262 0c.1707795 0 .5123385-.5123384.5123385-.5123384 0-1.5370152-.5123385-2.903251-1.3662358-4.0987073l-5.4649432 1.1954563-1.5370152 2.903251.6831179.6831179h7.1727378z" fill="#3875c7"/></svg>