<svg height="60" viewBox="0 0 45 60" width="45" xmlns="http://www.w3.org/2000/svg"><path d="m22.2372881.6779661c.9491526 0 1.7627119.54237288 2.3050848 1.35593221l16.2711864 27.79661019c.5423729.8135593.5423729 1.8983051 0 2.7118644s-1.3559322 1.3559322-2.3050847 1.3559322h-32.54237291c-.94915254 0-1.89830508-.5423729-2.30508474-1.3559322s-.40677966-1.8983051 0-2.7118644l16.27118645-27.79661019c.5423729-.81355933 1.3559322-1.35593221 2.3050847-1.35593221zm0 2.71186441-16.27118641 27.79661019h32.54237291zm-2.1694915 21.69491529h4.2033898v4.2033898h-4.2033898zm4.2033898-1.0847458h-4.2033898l-.6779661-12.8813559h5.559322zm-13.559322 35.7966102-10.57627118-9.8983051 10.84745758-10.1694915h5.4237289l-10.84745767 10.1694915 10.57627117 9.8983051zm14.779661 0-10.5762712-9.8983051 10.8474577-10.1694915h5.4237288l-10.8474576 10.1694915 10.5762711 9.8983051zm13.1525424 0-10.5762712-9.8983051 10.8474576-10.1694915h5.4237289l-10.8474577 10.1694915 10.5762712 9.8983051z" fill="#3875c7"/></svg>