<svg height="60" viewBox="0 0 36 60" width="36" xmlns="http://www.w3.org/2000/svg"><path d="m29.1428571.14285714h-22.85714281c-3.42857143 0-6.14285715 3-6.14285715 6.85714286v46c0 3.7142857 2.85714286 6.8571429 6.28571429 6.8571429h22.71428567c3.4285715 0 6.2857143-3 6.2857143-6.8571429v-46c0-3.85714286-2.8571428-6.85714286-6.2857143-6.85714286zm-15.4285714 4.42857143h8c.7142857 0 1.1428572.57142857 1.1428572 1.14285714 0 .71428572-.5714286 1.14285715-1.1428572 1.14285715h-8c-.7142857 0-1.1428571-.57142857-1.1428571-1.14285715-.1428572-.57142857.4285714-1.14285714 1.1428571-1.14285714zm19.4285714 45.14285713h-30.85714281v-38.7142857h30.85714281zm-15.4285714-29.1428571 9 16.4285714h-17.99999999zm0-5.1428572-12.99999999 24h26.14285719zm-.8571428 10.1428572v2.7142857l.5714285 5h1.1428572l.5714285-5v-2.7142857zm0 8.4285714v2.1428571h2.1428571v-2.1428571z" fill="#3875c7"/></svg>