<svg height="60" viewBox="0 0 53 60" width="53" xmlns="http://www.w3.org/2000/svg"><path d="m12.1333333 21.7333333c-1.6-3.0666666-.8-6.8 1.8666667-9.0666666 2.6666667-2.2666667 6.5333333-2.2666667 9.3333333 0 2.6666667 2.2666666 3.4666667 6 1.8666667 9.0666666h.5333333c.9333334-.8 4.5333334-4.1333333 4.9333334-7.8666666.1333333-1.7333334-.4-3.4666667-1.6-4.80000003-2-2.4-4.4-3.6-6.9333334-3.6-1.0666666 0-2.1333333.26666666-3.2.66666666l-2 1.33333334c-.6666666.53333333-1.7333333.66666666-2.5333333.26666666s-1.3333333-1.2-1.3333333-2.13333333.4-1.73333333 1.2-2.26666667l2.2666666-1.46666666c3.0666667-1.6 10.5333334-2.93333334 16.2666667 4.13333333 2 2.26666667 3.0666667 5.3333333 2.6666667 8.4-.4 2.6666667-1.4666667 5.2-3.2 7.4666667h4.1333333c.4 0 .6666667.2666666.6666667.6666666v12.1333334c-3.8666667 1.0666666-6.9333334 3.8666666-8.5333334 7.4666666s-1.3333333 7.8666667.5333334 11.3333334h-20.53333337c-4.26666666 0-7.6-3.4666667-7.6-7.6v-23.4666667c0-.4.26666667-.6666667.66666667-.6666667zm1.8666667 2.2666667-7.46666667 6.1333333c-.8.5333334-1.06666666 1.6-.53333333 2.4s1.6 1.0666667 2.4.5333334l4.4-3.3333334c.2666667-.1333333.6666667-.2666666.9333333-.1333333.2666667.1333333.4.4.4.8v5.2l-1.3333333 11.0666667c-.1333333.9333333.5333333 1.7333333 1.3333333 2h.4c.9333334 0 1.6-.6666667 1.7333334-1.4666667l1.0666666-8.4c.1333334-.5333333.5333334-.9333333 1.0666667-.9333333h1.0666667c.5333333 0 .9333333.4 1.0666666.9333333l1.0666667 8.4c.1333333.9333333.8 1.4666667 1.7333333 1.4666667h.4c.9333334-.1333334 1.4666667-1.0666667 1.3333334-2l-1.3333334-11.0666667v-5.2c0-.2666667.1333334-.6666667.4-.8.2666667-.1333333.6666667-.1333333.9333334.1333333l4.4 3.3333334c.5333333.4 1.2.4 1.7333333.1333333s.9333333-.8.9333333-1.4666667c0-.6666666-.2666666-1.2-.8-1.6l-4.6666666-3.8666666-1.6-1.3333334-1.3333334-1.0666666s-.1333333 0-.1333333.1333333c-.1333333.1333333-.2666667.1333333-.2666667.2666667l-.6666666.1333333c-.1333334.1333333-.2666667.1333333-.4.2666667-.1333334.1333333-.4.2666666-.5333334.2666666l-.4.1333334c-.2666666.1333333-.4.1333333-.6666666.2666666h-.1333334c-.2666666.1333334-.5333333.1333334-.8.1333334h-.2666666c-.2666667 0-.6666667 0-.9333334 0-.2666666 0-.6666666 0-.9333333-.1333334h-.2666667c-.2666666 0-.5333333-.1333333-.8-.1333333h-.1333333c-.2666667-.1333333-.4-.1333333-.6666667-.2666667l-.1333333-.1333333c-.2666667-.1333333-.5333333-.2666667-.6666667-.4l-.2666666.1333333c-.2666667-.1333333-.4-.2666666-.5333334-.4zm-1.8666667-2.2666667s0 .1333334 0 0c.5333334.9333334 1.0666667 1.6 1.8666667 2.2666667-.8-.6666667-1.3333333-1.4666667-1.8666667-2.2666667zm11.3333334 2.1333334c.6666666-.5333334 1.2-1.2 1.6-2-.5333334.6666666-1.0666667 1.4666666-1.6 2zm-4.9333334-9.3333334c-2.1333333 0-3.8666666 1.7333334-3.8666666 3.8666667s1.7333333 3.8666667 3.8666666 3.8666667c2.1333334 0 3.8666667-1.7333334 3.8666667-3.8666667 0-2.2666667-1.7333333-3.8666667-3.8666667-3.8666667zm22 20.8c6.5333334 0 11.8666667 5.3333334 11.8666667 11.8666667s-5.3333333 11.8666667-11.8666667 11.8666667c-6.5333333 0-11.8666666-5.3333334-11.8666666-11.8666667s5.3333333-11.8666667 11.8666666-11.8666667zm0 21.6c2.2666667 0 4.4-.8 6.1333334-2.1333333l-13.7333334-13.7333333c-2.4 2.9333333-2.8 6.9333333-1.2 10.2666666 1.6 3.4666667 5.0666667 5.6 8.8 5.6zm7.6-3.6c3.0666667-3.8666666 2.6666667-9.4666666-.8-12.9333333-3.4666666-3.4666667-9.0666666-3.8666667-12.9333333-.8z" fill="#3875c7"/></svg>