<svg height="60" viewBox="0 0 57 60" width="57" xmlns="http://www.w3.org/2000/svg"><path d="m56 13.6271186-2.0338983-1.0847457c-.1355932-3.93220341-.2711864-6.91525426-.2711864-7.72881358s-.1355933-1.62711864-.2711865-2.44067796c-1.0847457-2.30508475-5.1525424-2.30508475-5.1525424-2.30508475h-4.7457627s-4.0677966 0-5.1525423 2.30508475c-.2711865.6779661-.4067797 1.62711864-.4067797 2.44067796 0 .6779661-.1355932 3.66101695-.2711864 7.45762708l-2.3050848 1.3559322c-.1355932.1355933-.2711864.1355933-.2711864.4067797v2.0338983c0 .1355932.1355932.4067797.2711864.4067797l2.1694915-1.3559322c-.1355932 6.2372881-.1355932 14.1016949.5423729 19.2542373 0 0 0 3.7966101 5.9661017 4.2033898h3.5254237c5.9661017-.2711865 5.9661017-4.2033898 5.9661017-4.2033898.6779661-5.1525424.6779661-12.7457628.5423729-18.9830509l1.8983051 1.220339c.1355932 0 .2711864-.1355932.2711864-.4067797v-2.0338983c0-.2711864-.1355932-.4067796-.2711864-.5423729zm-9.8983051-4.33898301c4.6101695 0 6.3728814 1.62711861 6.3728814 1.62711861l-2.5762712 4.7457627c-2.8474576-.9491525-5.9661017-.9491525-8.8135593 0l-2.0338983-4.7457627c.1355932.1355933 2.5762711-1.62711861 7.0508474-1.62711861zm-7.1864407 4.20338981 1.220339 4.2033899v9.7627118l-1.220339 2.9830509zm.1355933 19.1186441 2.4406779-3.661017c2.9830509.6779661 5.9661017.6779661 8.9491526 0l2.0338983 3.661017c-4.3389831 1.6271186-9.0847458 1.6271186-13.4237288 0zm13.4237288-2.1694915-1.220339-2.9830509v-9.7627118l1.220339-4.2033899zm-51.93220342 20.6101695c-.13559322 0-.27118644-.1355933-.27118644-.4067797v-2.0338983c0-.1355932.13559322-.2711864.27118644-.4067797l2.30508475-1.4915254c.13559322-3.7966102.27118644-6.779661.27118644-7.4576271 0-.8135593.13559322-1.6271187.27118644-2.440678 1.08474576-2.3050847 5.15254237-2.3050847 5.15254237-2.3050847h4.74576272s4.0677966 0 5.1525424 2.3050847c.2711864.8135593.2711864 1.6271187.2711864 2.440678s.1355932 3.7966102.2711864 7.7288135l1.8983051 1.220339c.1355933.1355933.2711865.1355933.2711865.4067797v2.0338983c0 .1355932-.1355932.2711864-.2711865.4067797l-1.8983051-1.0847458c.1355933 3.1186441.1355933 5.8305085 0 9.0847458h-1.3559322v-10.8474577l-1.3559322 4.2033899v6.5084745h-10.98305081v-6.5084745l-1.3559322-4.2033899v10.8474577h-1.3559322c0-3.3898306 0-6.101695 0-9.220339zm10.57627122-7.0508475c-4.61016952 0-6.91525427 1.6271186-6.91525427 1.6271186l2.03389831 4.7457628c2.84745762-.9491526 5.96610166-.9491526 8.81355936 0l2.5762711-4.7457628s-1.898305-1.6271186-6.5084745-1.6271186zm25.4915254 2.7118644c-.1355932 0-.2711864 0-.2711864 0-5.8305085-1.4915254-6.101695-7.8644068-5.4237289-10.9830508.1355933-.6779661.8135594-1.220339 1.6271187-1.0847458.6779661.1355932 1.220339.8135593 1.0847457 1.6271186 0 .2711865-1.2203389 6.6440678 3.3898306 7.8644068.6779661.1355932 1.0847457.8135593 1.0847457 1.4915254-.2711864.5423729-.8135593 1.0847458-1.4915254 1.0847458zm-4.7457627 3.7966102c-.1355932 0-.2711865 0-.4067797 0-7.5932203-2.1694915-8-10.5762712-7.1864407-14.779661.1355933-.5423729.4067797-.8135594.9491526-1.0847458.4067796-.1355932.9491525 0 1.3559322.2711864.4067796.2711865.5423729.8135594.4067796 1.3559322-.2711864 1.7627119-.2711864 3.5254238 0 5.2881356.5423729 3.3898305 2.3050848 5.4237288 5.2881356 6.3728814.6779661.1355932 1.0847458.8135593.9491526 1.4915254 0 .5423729-.6779661 1.0847458-1.3559322 1.0847458z" fill="#3875c7"/></svg>