<svg height="60" viewBox="0 0 79 60" width="79" xmlns="http://www.w3.org/2000/svg"><path d="m69.3220339 48.8135593c.1694915 0 .1694915 0 .338983.1694915 0 0 .1694916.1694916.1694916.3389831v6.6101695c0 .1694915-.1694916.338983-.3389831.338983h-20.1694915v2.7118644c0 .1694916-.1694915.3389831-.3389831.3389831l-.5084745-.1694915-8.9830509-6.6101695-.1694915-.3389831.1694915-.338983 8.9830509-6.6101695h.5084745c.1694916 0 .3389831.1694915.3389831.338983v3.0508475h20zm-22.8813559-28.3050847-12.7118644-.5084746-6.6101695 10.1694915-.1694916.1694916-.1694915-.1694916-.338983-9.6610169-13.0508475-2.0338983-.1694915-.3389831.1694915-.338983 11.6949153-3.8983051-2.0338983-9.66101696.1694915-.33898306h.338983l8.1355933 5.59322034 7.2881355-8.98305084h.3389831l.1694915.33898305-2.2033898 12.54237287 9.6610169 6.779661.1694916.3389831zm-29.3220339 24.2372881c-2.3728814 0-4.4067797-1.6949152-5.0847458-3.8983051l-11.52542372.1694916v-2.2033899l12.37288132-.1694915c.5084746 0 1.0169492.5084746 1.1864407 1.0169491 0 1.6949153 1.3559322 2.881356 3.0508475 2.881356 1.6949152 0 3.0508474-1.3559322 3.0508474-3.0508475 0-.6779661.5084746-1.0169491 1.0169492-1.0169491h2.2033898c.1694915 0 .3389831-.3389831.3389831-.5084746v-7.1186441c0-.338983-1.1864407-.6779661-2.3728814-.6779661h-3.559322c-1.3559322 0-3.8983051-2.0338983-6.1016949-3.8983051h-11.35593225v-2.2033898h11.86440675c.3389831 0 .5084746.1694915.6779661.3389831 1.8644068 1.6949152 4.4067797 3.559322 4.9152543 3.7288135h3.3898305c2.0338983 0 4.5762712.6779661 4.5762712 2.881356v7.118644c0 .6779661-.1694916 1.3559322-.6779661 1.8644068-.5084746.5084746-1.1864407.8474576-1.8644068.8474576h-1.3559322c-.3389831 2.2033899-2.3728814 3.8983051-4.7457627 3.8983051zm52.8813559 0c-2.3728814 0-4.5762712-1.6949152-5.0847458-3.8983051l-21.0169491.1694916c-.6779661 2.2033898-2.5423729 3.7288135-4.9152543 3.7288135-2.3728813 0-4.2372881-1.5254237-4.9152542-3.559322h-3.220339c-.338983 0-.5084745-.1694915-.8474576-.3389831-.1694915-.1694915-.3389831-.5084745-.3389831-.8474576v-5.5932203c.1694916-1.6949153 1.1864407-3.3898305 2.7118645-4.0677966 1.8644067-1.0169492 4.0677966-1.8644068 10.6779661-2.7118645.5084745-.338983 2.7118644-1.8644067 4.4067796-3.2203389.1694915-.1694916.5084746-.1694916.6779661-.1694916h16.9491526c.338983 0 .5084745.1694916.6779661.3389831 1.8644067 1.6949152 4.4067796 3.559322 4.9152542 3.7288135h3.3898305c2.0338983 0 4.5762712.6779661 4.5762712 2.881356v7.118644c0 .6779661-.1694915 1.3559322-.6779661 1.8644068s-1.1864407.8474577-1.8644068.8474577h-1.1864407c-.338983 2.0338983-2.5423728 3.7288135-4.9152542 3.7288135zm-4.0677966-6.1016949c.5084746 0 1.0169491.5084746 1.0169491 1.0169491 0 1.6949153 1.3559322 3.0508475 3.0508475 3.0508475s3.0508475-1.3559322 3.0508475-3.0508475c0-.6779661.5084745-1.0169491 1.0169491-1.0169491h2.2033898c.1694916 0 .3389831-.3389831.3389831-.5084746v-7.118644c0-.3389831-1.1864407-.6779661-2.3728814-.6779661h-3.559322c-1.3559322 0-3.8983051-2.0338984-6.1016949-3.8983051h-16.2711865c-4.2372881 3.3898305-4.7457627 3.3898305-4.9152542 3.3898305-6.779661.8474576-8.6440678 1.8644068-10.1694915 2.5423729-.8474576.338983-1.5254237 1.1864406-1.5254237 2.0338983v4.5762711h3.0508474c.5084746 0 1.0169492.3389831 1.0169492 1.0169492.1694915 1.5254237 1.5254237 2.7118644 3.0508474 2.7118644 1.5254238 0 2.881356-1.1864407 3.0508475-2.7118644 0-.5084746.5084746-1.0169492 1.0169491-1.0169492z" fill="#3875c7"/></svg>