<svg height="50" viewBox="0 0 67 50" width="67" xmlns="http://www.w3.org/2000/svg"><path d="m30.3225806 49.8387097-.3225806-.967742c-7.4193548-27.9032258-.3225806-46.93548383 0-47.74193544l.3225806-.96774194h.967742c5.9677419.80645162 11.7741935 2.25806452 17.2580645 4.35483871 11.6129032 4.83870968 17.7419355 12.25806447 17.7419355 21.61290327 0 9.3548387-6.1290323 16.4516129-17.7419355 20.3225806-5.6451613 1.7741936-11.4516129 2.9032258-17.2580645 3.2258065zm1.9354839-46.77419357c-1.2903226 4.03225806-5.8064516 21.12903227.1612903 44.19354837 5.483871-.3225806 31.4516129-2.9032258 31.4516129-20.8064516s-26.2903225-22.74193548-31.6129032-23.38709677zm-32.2580645 3.06451613h23.5483871v2.58064516h-23.5483871zm0 8.54838714h23.5483871v2.5806451h-23.5483871zm0 8.8709677h23.5483871v2.5806452h-23.5483871zm0 8.3870968h23.5483871v2.5806451h-23.5483871zm0 9.516129h23.5483871v2.5806452h-23.5483871zm48.5483871-28.3870968 7.5806452 20.967742h-4.5161291l-1.6129032-4.6774194h-7.5806452l-1.6129032 4.6774194h-4.516129l7.5806451-20.8064516zm.3225806 12.9032258-2.5806451-7.7419354-2.7419355 7.7419354z" fill="#3875c7"/></svg>