<svg height="60" viewBox="0 0 56 60" width="56" xmlns="http://www.w3.org/2000/svg"><path d="m41.6363636 41.6363636h-27.6363636l2.9090909-3.8181818h21.6363636zm5.0909091 8.5454546h-37.63636361l4.00000001-5.2727273h29.6363636zm5.8181818 9.8181818h-49.27272723l4.90909091-6.9090909h39.63636362zm-2.5454545-51.63636364s5.0909091-.18181818 5.2727273 1.81818184c0 .7272727-.9090909 1.4545454-1.6363637 1.8181818-1.0909091.3636364-2.3636363.7272727-3.4545454.7272727 0 0 2.7272727 6 2.7272727 10.9090909v10.5454546c0 .7272727-.1818182 2.3636363-1.6363636 2.3636363h-5.0909091c-.7272727 0-1.2727273-.9090909-1.2727273-1.8181818v-1.0909091h-34.1818182v1.0909091c0 .9090909-.1818182 1.8181818-1.09090906 1.8181818h-5.09090909c-1.45454546 0-1.81818182-1.6363636-1.81818182-2.3636363v-10.5454546c0-4.9090909 2.90909091-10.9090909 2.90909091-10.9090909-1.09090909-.1818182-2.36363637-.3636363-3.45454546-.7272727-.90909091-.1818182-1.45454545-.9090909-1.63636363-1.8181818 0-2.00000002 5.09090909-1.81818184 5.09090909-1.81818184h3.09090909c.18181818-.90909091.54545454-1.63636363.90909091-2.36363636.54545456-1.09090909 1.63636366-2.54545455 1.99999996-3.09090909 1.0909091-1.27272727 2.7272728-2.18181818 4.3636364-2.18181818h23.4545455c1.6363636.18181818 3.2727272 1.09090909 4.3636363 2.36363636.7272727.90909091 1.4545455 2 2 2.90909091.3636364.72727273.7272727 1.63636364.9090909 2.54545455h3.2727273zm-36.7272727-1.45454545c-.7272728 2-1.2727273 3.81818179-1.6363637 5.81818179h32.5454546c-.3636364-2-.9090909-3.99999997-1.4545455-5.81818179-.9090909-2-2-2.36363636-2.7272727-2.36363636h-23.6363636c-1.0909091-.18181819-2.1818182.18181818-3.0909091 2.36363636z" fill="#3875c7"/></svg>